# xmcd
# 
# Track frame offsets:
#     225
#     11465
#     41852
#     66952
#     98632
#     113717
#     125510
#     144967
#     160132
#     181207
#     208270
#     224530
#     248030
#     265482
# 
# Disc length: 3978
# 
# Revision: 0
# Processed by: cddbd v1.5.2PL0 Copyright (c) Steve Scherf et al.
# Submitted via: fre:ac v1.0.27
# 
DISCID=cd0f870e
DTITLE=Cuby and Blizzards - Appleknockers Flophouse/To Blind To See
DYEAR=0
DGENRE=Blues
TTITLE0=Appleknockers Flophouse
TTITLE1=Unknown Boy
TTITLE2=Help Me
TTITLE3=Go Down Sunshine
TTITLE4=Disappointed Blues
TTITLE5=Midnight Mover
TTITLE6=Black Snake
TTITLE7=Thursday Night
TTITLE8=Night Train
TTITLE9=Evil Woman
TTITLE10=Wee Wee Baby
TTITLE11=Too Blind To See
TTITLE12=Bird's Works
TTITLE13=Time Passed Me By
EXTD=Harry "Cuby" Muskee: Vocals, Harmonica\nEelco Gelling: Electric and Acoustic Guitar\nHelmig Van Der Vegt: Piano, Organ\nHerman Deinum: Bass Guitar\nHans Lafaille: Drums
EXTT0=
EXTT1=
EXTT2=
EXTT3=
EXTT4=
EXTT5=
EXTT6=
EXTT7=
EXTT8=
EXTT9=
EXTT10=
EXTT11=
EXTT12=
EXTT13=
PLAYORDER=
